<svg width="40" height="40" viewBox="0 0 40 40" fill="none" xmlns="http://www.w3.org/2000/svg">
<g clip-path="url(#clip0_1_520)">
<path d="M0 17.0178C0.209692 16.1607 0.597778 15.4141 1.35934 14.8761C1.29258 14.7937 1.24354 14.7238 1.18512 14.6623C0.358875 13.799 0.135621 12.799 0.546659 11.6791C2.123 7.37899 5.01695 4.27275 9.12002 2.2697C9.34223 2.16126 9.56653 2.06012 9.79292 1.96106C10.3125 1.73375 10.6306 1.79631 10.7955 2.15292C10.9624 2.51161 10.7819 2.78271 10.2791 3.03401C9.48933 3.42815 8.68395 3.80249 7.93699 4.26754C4.96166 6.11835 2.88769 8.71574 1.67127 11.9972C1.21329 13.2328 1.93939 14.2807 3.25596 14.2807C14.4093 14.2828 25.5626 14.2817 36.7159 14.2807C38.0356 14.2807 38.7721 13.2349 38.3089 11.9992C36.6773 7.64801 33.6373 4.66689 29.3756 2.89428C26.9751 1.89641 24.4557 1.42406 21.8705 1.23742C18.9109 1.02366 16.0002 1.31041 13.1282 2.03613C12.6785 2.14979 12.3718 2.01111 12.2748 1.66701C12.1746 1.31145 12.3864 1.02366 12.8527 0.903749C16.0993 0.0758357 19.3845 -0.190056 22.7218 0.134228C25.6585 0.419931 28.4909 1.07684 31.1387 2.41151C35.0342 4.37494 37.7873 7.38107 39.3594 11.4581C39.8372 12.6968 39.6724 13.801 38.7074 14.751C38.6813 14.777 38.6667 14.8146 38.6344 14.8667C39.2875 15.3818 39.759 16.0199 39.9103 16.8499C40.2848 18.9082 39.4252 20.5766 37.612 21.0979C37.5275 21.1219 37.4263 21.2773 37.4253 21.3722C37.4117 22.3732 37.4242 23.3752 37.4107 24.3773C37.4075 24.6025 37.5192 24.6494 37.6965 24.7089C38.9745 25.1332 39.7569 26.0154 39.9426 27.3448C40.1367 28.7348 39.8644 30.0017 38.6396 30.8786C38.3496 31.0861 37.9876 31.1924 37.6736 31.3718C37.5672 31.4323 37.4357 31.5741 37.4367 31.6794C37.4409 35.2965 35.5266 37.5676 32.3426 38.9408C31.0031 39.5185 29.5926 39.8146 28.1321 39.8157C22.679 39.8209 17.226 39.8417 11.773 39.8052C9.32241 39.7885 7.08257 39.0326 5.17135 37.4685C3.39054 36.0118 2.53717 34.0943 2.55907 31.7951C2.56116 31.5355 2.509 31.4166 2.24193 31.329C1.10375 30.9578 0.392259 30.1674 0.0834594 29.0132C0.064681 28.9412 0.0292108 28.8734 0.00104324 28.8036C0.00104324 28.3093 0.00104324 27.8151 0.00104324 27.3208C0.0229513 27.2625 0.0532054 27.2051 0.0667675 27.1446C0.348443 25.8955 1.1121 25.0821 2.3233 24.6974C2.54655 24.6265 2.55699 24.5055 2.55699 24.3262C2.55699 23.3784 2.5549 22.4305 2.57055 21.4827C2.57472 21.2387 2.51213 21.1282 2.25758 21.051C1.44072 20.8039 0.808513 20.2961 0.406864 19.5401C0.2316 19.2148 0.132492 18.8488 0 18.5005C0 18.0063 0 17.5121 0 17.0178ZM3.73689 31.5052C3.72542 31.6617 3.70768 31.7899 3.70977 31.9171C3.73689 33.8086 4.44838 35.3925 5.92353 36.5812C7.6574 37.9784 9.68233 38.6311 11.8919 38.6405C17.2667 38.6635 22.6415 38.6489 28.0163 38.6478C29.4413 38.6478 30.8038 38.3454 32.1047 37.7719C33.7531 37.0452 35.0863 35.9774 35.7968 34.2632C36.1598 33.3873 36.3215 32.4781 36.236 31.5063H12.2226C11.9754 33.1381 11.2169 33.9702 9.9348 34.0151C9.39857 34.0338 8.90512 33.8764 8.4753 33.5521C7.80241 33.0464 7.52178 32.3436 7.52386 31.5042H3.73689V31.5052ZM19.9937 15.4537C14.451 15.4537 8.90825 15.4537 3.3655 15.4537C2.37546 15.4537 1.63998 15.9042 1.32492 16.7279C1.03072 17.4964 1.07141 18.8154 1.78916 19.464C2.28679 19.9134 2.86683 20.0448 3.51468 20.0448C14.4959 20.0406 25.4781 20.0417 36.4592 20.0417C36.6022 20.0417 36.7461 20.0438 36.888 20.0312C37.6277 19.9666 38.2296 19.6371 38.5541 18.9687C39.2301 17.5757 38.7491 15.4235 36.5051 15.4402C31.002 15.4819 25.4979 15.4537 19.9937 15.4537ZM12.1861 27.8047C12.4459 27.6764 12.6493 27.5972 12.8308 27.4814C13.0604 27.3344 13.2721 27.1603 13.4891 26.9945C14.9152 25.9028 16.5928 25.8975 18.0283 26.9809C18.215 27.1217 18.3965 27.2708 18.5864 27.4074C19.4231 28.0049 20.5216 28.009 21.3593 27.4168C21.6139 27.2364 21.8538 27.0351 22.1084 26.8547C23.3947 25.9434 25.0253 25.9497 26.3001 26.8683C26.5317 27.0351 26.7539 27.2166 26.9835 27.3876C27.5353 27.7974 28.1519 27.9152 28.829 27.8193C29.4309 27.7338 29.8732 27.3719 30.3166 27.0132C31.1293 26.3563 32.0474 26.0946 33.0843 26.2197C33.6999 26.2938 34.211 26.5774 34.7014 26.9382C35.2971 27.3761 36.1629 27.0789 36.213 26.3866C36.2756 25.5117 36.2287 24.6296 36.2287 23.7172H35.7331C32.0766 23.7172 28.42 23.7172 24.7634 23.7172C24.2126 23.7172 23.9195 23.5108 23.9163 23.1281C23.9142 22.7423 24.1938 22.5494 24.7572 22.5473C24.8479 22.5473 24.9397 22.5473 25.0305 22.5473C28.6088 22.5473 32.1882 22.5473 35.7665 22.5473H36.2214V21.2502H3.76402V22.5484C4.71337 22.5484 5.63455 22.5473 6.55573 22.5484C7.92968 22.5504 8.69647 23.3189 8.70168 24.7036C8.70481 25.6275 8.70168 26.5503 8.70168 27.4741C8.70168 28.8265 8.70481 30.18 8.70064 31.5324C8.69855 32.0381 8.854 32.4552 9.31928 32.7054C10.1184 33.136 11.0072 32.5636 11.0093 31.6085C11.0156 29.3062 11.0104 27.0039 11.0114 24.7016C11.0114 23.3273 11.7886 22.5494 13.1615 22.5484C15.9334 22.5473 18.7053 22.5484 21.4772 22.5484C21.5816 22.5484 21.6859 22.5442 21.7892 22.5536C22.1053 22.5807 22.2972 22.7579 22.3285 23.0676C22.3619 23.4002 22.1877 23.615 21.8664 23.6912C21.7297 23.7235 21.5826 23.7183 21.4397 23.7183C18.6678 23.7193 15.8959 23.7183 13.124 23.7204C12.5314 23.7204 12.1976 23.9727 12.1903 24.4774C12.1726 25.5555 12.1851 26.6347 12.1851 27.8088L12.1861 27.8047ZM12.1997 30.3124H12.666C20.6176 30.3124 28.5681 30.3124 36.5197 30.3124C36.6627 30.3124 36.8066 30.3124 36.9485 30.302C37.7873 30.2415 38.5551 29.6607 38.7116 28.8359C38.8107 28.3135 38.8076 27.7431 38.7116 27.2207C38.5874 26.5472 38.1065 26.1134 37.4441 25.8517C37.4159 26.1603 37.419 26.4106 37.3658 26.6483C37.0299 28.1644 35.2772 28.8422 34.0306 27.8766C33.101 27.1571 31.8095 27.2385 31.0229 27.9527C30.9175 28.0487 30.7976 28.1289 30.6838 28.2155C29.2546 29.302 27.5771 29.3051 26.1468 28.2238C25.96 28.0831 25.7785 27.934 25.5876 27.7984C24.7467 27.1999 23.6148 27.2061 22.7802 27.814C22.5591 27.9746 22.3494 28.1498 22.1282 28.3104C20.7991 29.278 19.1278 29.2697 17.8113 28.2895C17.5922 28.1269 17.3794 27.9548 17.1572 27.7963C16.3142 27.1988 15.1781 27.1978 14.3519 27.8193C13.6884 28.3177 13.0489 28.8515 12.1997 28.9798V30.3134V30.3124ZM7.51552 27.3771C6.8781 27.3083 6.40029 27.545 5.93709 27.8912C5.26942 28.3896 4.52767 28.4699 3.76923 28.1102C3.01393 27.7515 2.60706 27.1405 2.5549 26.3C2.5476 26.1749 2.53299 26.0498 2.51526 25.8569C2.31913 25.9632 2.1543 26.0289 2.01554 26.1301C1.34265 26.6212 1.14965 27.3094 1.1653 28.1123C1.19243 29.4678 2.00094 30.3061 3.34672 30.3103C4.60696 30.3145 5.86719 30.3113 7.12847 30.3103C7.25366 30.3103 7.37781 30.2999 7.51656 30.2926V27.3761L7.51552 27.3771ZM3.71603 23.7204C3.71603 24.5441 3.71916 25.3199 3.71499 26.0957C3.71186 26.5211 3.85895 26.8579 4.25539 27.0497C4.65182 27.2426 5.00965 27.1509 5.33931 26.8839C5.8818 26.445 6.50044 26.2114 7.20046 26.1895C7.29957 26.1864 7.39763 26.1614 7.51447 26.1436C7.51447 25.542 7.53638 24.9591 7.50717 24.3804C7.48735 23.9956 7.19837 23.7297 6.81237 23.7245C5.80147 23.7099 4.79161 23.7193 3.71603 23.7193V23.7204Z" fill="#9D00DE"/>
<path d="M15.8009 5.05296C15.4734 5.5691 15.2084 6.05396 14.8672 6.47626C14.7869 6.57532 14.3905 6.54404 14.2476 6.43351C14.1067 6.32402 14.0024 6.00287 14.0598 5.83604C14.1975 5.43876 14.4009 5.0467 14.6586 4.71616C14.7713 4.57123 15.102 4.49824 15.2971 4.54516C15.4734 4.58791 15.6006 4.83816 15.8009 5.05296Z" fill="#9D00DE"/>
<path d="M20.5529 5.51178C20.5529 5.71928 20.5707 5.92991 20.5487 6.13532C20.5143 6.45022 20.3171 6.62644 20.0021 6.63687C19.686 6.6473 19.4544 6.48255 19.4273 6.17182C19.3897 5.74743 19.3897 5.31367 19.4273 4.88928C19.4544 4.57751 19.6902 4.41485 20.0042 4.42528C20.3182 4.4357 20.5174 4.60984 20.5508 4.92682C20.5717 5.11972 20.555 5.3168 20.554 5.51178H20.5529Z" fill="#9D00DE"/>
<path d="M26.0863 5.98513C25.9006 6.19889 25.7848 6.44601 25.6074 6.5044C25.428 6.56279 25.0983 6.50649 24.9898 6.37406C24.7155 6.03935 24.4807 5.65042 24.3274 5.24585C24.2637 5.07797 24.3847 4.7443 24.5339 4.62022C24.6664 4.51074 25.0649 4.4951 25.1526 4.59937C25.4937 5.00811 25.7577 5.48046 26.0863 5.98409V5.98513Z" fill="#9D00DE"/>
</g>
<defs>
<clipPath id="clip0_1_520">
<rect width="40" height="39.8253" fill="white"/>
</clipPath>
</defs>
</svg>
