<svg width="29" height="35" viewBox="0 0 29 35" fill="none" xmlns="http://www.w3.org/2000/svg">
<path d="M24.5225 0C24.9554 0.222548 25.1624 0.588041 25.2461 1.05454C25.353 1.64771 25.5039 2.23319 25.6074 2.82636C25.6462 3.04891 25.7402 3.10284 25.9472 3.09685C26.3835 3.08486 26.8207 3.08743 27.2579 3.09513C28.2031 3.11054 28.7524 3.64894 28.7679 4.58792C28.7791 5.25984 28.7809 5.93177 28.7679 6.60369C28.7498 7.54867 28.2065 8.06994 27.2519 8.08107C26.7259 8.08706 26.7216 8.08621 26.6422 8.61604C26.5456 9.25715 26.4482 9.89912 26.3714 10.5428C26.3585 10.6515 26.4171 10.8099 26.4991 10.8818C26.8647 11.1985 26.9829 11.5922 26.9173 12.0493C26.2162 16.9154 25.5125 21.7815 24.8106 26.6476C24.6691 27.6277 24.5243 28.6069 24.3915 29.5887C24.3225 30.0979 24.1077 30.4874 23.6136 30.7108C23.5196 30.7536 23.442 30.9111 23.423 31.0258C23.2989 31.7893 23.2083 32.5588 23.0755 33.3215C22.9013 34.3212 22.1278 34.9906 21.1076 34.9932C16.6225 35.0034 12.1382 35.0034 7.65307 34.9932C6.61997 34.9906 5.84385 34.3033 5.67741 33.2889C5.55237 32.5254 5.45751 31.7568 5.33074 30.9933C5.31263 30.8846 5.21605 30.7468 5.11774 30.6997C4.68311 30.4917 4.44769 30.1459 4.38215 29.6931C4.02772 27.2605 3.68277 24.8261 3.33438 22.3935C2.93425 19.5997 2.53325 16.8058 2.13139 14.012C2.03394 13.3358 1.92615 12.6613 1.83819 11.9842C1.78214 11.5503 1.92011 11.1831 2.25988 10.8843C2.34267 10.8116 2.40476 10.6549 2.39182 10.5471C2.303 9.81267 2.18658 9.08168 2.09258 8.34813C2.06758 8.15126 1.99859 8.06395 1.79076 8.0785C1.60794 8.09134 1.42253 8.08364 1.23971 8.06909C0.597254 8.01859 0.0487941 7.51785 0.0237857 6.88188C-0.00984626 6.02935 -0.00812154 5.17339 0.022061 4.32086C0.04362 3.70286 0.525679 3.20042 1.15779 3.13622C1.69331 3.08144 2.2366 3.09342 2.77644 3.09941C3.01013 3.10198 3.11965 3.04977 3.16191 2.79897C3.26194 2.21607 3.41631 1.64258 3.51806 1.06053C3.59999 0.593177 3.80695 0.229396 4.23296 0H24.5225V0ZM22.3977 30.8349C22.3089 30.8221 22.2649 30.8101 22.2209 30.8101C20.9791 30.8084 19.7364 30.8101 18.4947 30.8058C18.3463 30.8058 18.1928 30.8007 18.0514 30.7613C17.7979 30.6911 17.6366 30.4891 17.7082 30.2503C17.7599 30.0765 17.9427 29.9182 18.1057 29.8078C18.2032 29.7419 18.3731 29.777 18.511 29.7761C19.9831 29.7744 21.4551 29.771 22.9272 29.7787C23.2031 29.7804 23.3325 29.7111 23.3747 29.408C23.7464 26.7477 24.1371 24.09 24.5191 21.4314C24.9675 18.3106 25.4125 15.1889 25.8609 12.069C25.9221 11.6418 25.9118 11.6213 25.4711 11.6204C23.5386 11.6204 21.6069 11.6204 19.6744 11.6204C14.2113 11.6204 8.74827 11.6204 3.28523 11.6204C2.86008 11.6204 2.84111 11.6461 2.89803 12.0399C3.24901 14.4733 3.59826 16.9068 3.94838 19.3403C4.42785 22.6751 4.91422 26.009 5.37731 29.3456C5.42819 29.7111 5.5791 29.7804 5.91025 29.7795C9.08459 29.7701 12.2589 29.7735 15.4333 29.7744C15.5825 29.7744 15.7334 29.7744 15.88 29.7966C16.1447 29.8386 16.3181 30.032 16.281 30.2683C16.2534 30.4463 16.0878 30.6355 15.9309 30.7493C15.8196 30.8298 15.6213 30.8033 15.4617 30.8033C12.5754 30.8058 9.68824 30.805 6.80193 30.805C6.6674 30.805 6.53287 30.805 6.36557 30.805C6.46561 31.5111 6.56478 32.1719 6.65101 32.8353C6.76053 33.6776 7.08392 33.9686 7.93507 33.9686C10.373 33.9686 12.8117 33.9686 15.2496 33.9686C17.1476 33.9686 19.0448 33.9703 20.9429 33.9677C21.5879 33.9677 21.9475 33.7144 22.0545 33.1263C22.1907 32.3774 22.2821 31.6198 22.3986 30.8332L22.3977 30.8349ZM4.15621 3.09342C4.49167 3.09342 4.79867 3.08914 5.10567 3.09428C5.44975 3.10027 5.79642 3.09171 6.13619 3.13536C6.41473 3.17131 6.53977 3.38359 6.51821 3.6575C6.49751 3.91771 6.34315 4.07178 6.08099 4.10602C5.95595 4.12228 5.82832 4.12057 5.70242 4.12057C4.34507 4.12142 2.98771 4.12057 1.63036 4.12142C1.11639 4.12142 1.03878 4.20188 1.03706 4.72059C1.0362 5.30179 1.0362 5.88298 1.03706 6.46332C1.03792 7.00086 1.0888 7.05221 1.6295 7.05221C4.49339 7.05221 7.35729 7.05221 10.2212 7.05221C15.8688 7.05221 21.5164 7.05221 27.1639 7.05221C27.6564 7.05221 27.7236 6.98545 27.7253 6.50012C27.7279 5.96429 27.7253 5.42932 27.7253 4.89349C27.7253 4.13683 27.7098 4.12057 26.9604 4.12057C20.9101 4.12057 14.8607 4.12057 8.81036 4.12057C8.67238 4.12057 8.53441 4.12057 8.39643 4.1103C8.11357 4.08804 7.948 3.92113 7.92903 3.6515C7.90919 3.36562 8.05838 3.17131 8.35245 3.12081C8.49819 3.09599 8.6491 3.09342 8.79829 3.09342C13.9164 3.09257 19.0354 3.09257 24.1535 3.09257H24.6045C24.476 2.472 24.3406 1.91905 24.2518 1.3584C24.2009 1.03485 24.0698 0.947542 23.7387 0.948398C17.5047 0.959526 11.2707 0.956958 5.03668 0.956958C4.96769 0.956958 4.8849 0.932991 4.8323 0.962093C4.7314 1.01773 4.58739 1.08963 4.56583 1.17951C4.41664 1.79836 4.29505 2.42321 4.15448 3.09257L4.15621 3.09342ZM25.6609 8.09905H3.10413C3.224 8.94045 3.33956 9.75703 3.45684 10.5779H25.3081C25.4246 9.75789 25.5401 8.95072 25.6609 8.09905Z" fill="#9D00DE"/>
</svg>
