<svg width="21" height="14" viewBox="0 0 21 14" fill="none" xmlns="http://www.w3.org/2000/svg">
<g clip-path="url(#clip0_11_804)">
<path d="M0.5 12.4441C0.5 8.81501 0.5 5.18547 0.5 1.55593C0.558105 1.37185 0.592773 1.17608 0.678223 1.00564C1.02783 0.308752 1.61572 0 2.38672 0C7.79541 0.000973981 13.2046 0.00048699 18.6133 0.00048699C18.6587 0.00048699 18.7046 -0.00048699 18.75 0.00146097C19.3135 0.0258105 19.7778 0.243982 20.1323 0.690065C20.3364 0.946709 20.4248 1.24767 20.5 1.55593V12.4441C20.4424 12.6277 20.4077 12.8229 20.3228 12.9929C19.9736 13.6903 19.3853 14 18.6143 13.9995C13.2051 13.9985 7.7959 13.9995 2.38672 13.9995C2.34131 13.9995 2.29541 14.0005 2.25 13.9985C1.67041 13.9732 1.17529 13.758 0.852539 13.2734C0.688477 13.0275 0.614746 12.7226 0.5 12.4441H0.5ZM2.5293 1.17706C2.56396 1.21942 2.5752 1.23598 2.58887 1.24913C4.79932 3.43815 7.00586 5.63107 9.22217 7.81425C9.98926 8.57006 11.0371 8.55009 11.8125 7.78308C13.9927 5.62766 16.1694 3.46981 18.3472 1.31244C18.3853 1.27445 18.4185 1.2316 18.4668 1.17657H2.5293V1.17706ZM2.6377 12.8176H18.3657C16.7515 11.1784 15.104 9.50508 13.4321 7.80694C13.1479 8.09621 12.8867 8.36503 12.6216 8.63044C12.0825 9.171 11.4351 9.48511 10.6665 9.52553C9.77051 9.57228 9.01074 9.26012 8.37939 8.63142C8.11377 8.36698 7.85254 8.09768 7.56836 7.80938C5.89795 9.50605 4.25 11.1794 2.63721 12.8176H2.6377ZM1.68262 11.9571C1.69775 11.9673 1.71338 11.9775 1.72852 11.9878C3.38037 10.3125 5.03223 8.63726 6.63184 7.0151C5.00391 5.36858 3.354 3.69967 1.68262 2.00884V11.9571ZM19.3169 2.00689C17.6406 3.7021 15.9868 5.37443 14.3916 6.98734C16.0005 8.61973 17.6504 10.294 19.3169 11.9848V2.00689Z" fill="black"/>
</g>
<defs>
<clipPath id="clip0_11_804">
<rect width="20" height="14" fill="white" transform="translate(0.5)"/>
</clipPath>
</defs>
</svg>
