<svg width="25" height="20" viewBox="0 0 25 20" fill="none" xmlns="http://www.w3.org/2000/svg">
<g clip-path="url(#clip0_11_794)">
<path d="M0.15625 6.08708C0.23805 5.81927 0.288933 5.53662 0.408091 5.28623C0.931096 4.18465 1.80771 3.56385 3.0302 3.56062C9.34555 3.54643 15.6609 3.54965 21.9762 3.5574C23.5652 3.55933 24.8367 4.84805 24.8392 6.43943C24.8457 9.99777 24.8463 13.5555 24.8392 17.1138C24.836 18.6987 23.5517 19.9945 21.9724 19.9958C15.657 20.0023 9.34168 20.001 3.02634 19.9958C1.65248 19.9945 0.469924 18.9936 0.205845 17.6423C0.19554 17.5894 0.172996 17.5384 0.15625 17.4868C0.15625 13.6871 0.15625 9.88677 0.15625 6.08708ZM12.5048 4.61702C9.38741 4.61702 6.27064 4.61573 3.15322 4.61767C1.97839 4.61832 1.21772 5.37722 1.21707 6.54655C1.21579 10.0397 1.21514 13.5335 1.21707 17.0267C1.21707 18.1605 1.99321 18.9356 3.1281 18.9356C9.3784 18.9368 15.6287 18.9368 21.8796 18.9356C22.9997 18.9356 23.7784 18.1586 23.7791 17.0396C23.7816 13.5303 23.781 10.0204 23.7765 6.51106C23.7765 6.31295 23.7501 6.10773 23.696 5.91736C23.4628 5.10102 22.7762 4.61896 21.8564 4.61831C18.739 4.61638 15.6222 4.61767 12.5048 4.61767V4.61702Z" fill="black"/>
<path d="M0.15625 2.75361C0.381039 2.31027 0.60454 1.86629 0.829973 1.42359C1.30982 0.48206 2.07823 0.00193598 3.13325 0.00129066C9.37453 -0.000645328 15.6165 0 21.8584 0.000645328C22.9128 0.000645328 23.685 0.473025 24.1707 1.41069C24.3665 1.78885 24.5603 2.16766 24.7497 2.54904C24.9088 2.86977 24.8296 3.17566 24.5591 3.32021C24.2769 3.47057 23.9768 3.35635 23.8048 3.0253C23.6084 2.64778 23.4177 2.26704 23.2245 1.88758C22.9417 1.33196 22.4889 1.06156 21.8661 1.06156C15.6242 1.06285 9.3829 1.06285 3.14098 1.06156C2.50591 1.06156 2.05375 1.34099 1.77357 1.90952C1.59645 2.26962 1.40901 2.62584 1.2364 2.98851C1.1269 3.2189 0.993573 3.41056 0.714036 3.42669C0.432567 3.44282 0.27734 3.266 0.15625 3.04337C0.15625 2.94721 0.15625 2.85041 0.15625 2.75361Z" fill="black"/>
<path d="M11.3332 12.3928C11.417 12.2631 11.4543 12.1773 11.5155 12.1154C13.0021 10.6221 14.488 9.12878 15.9804 7.6413C16.6528 6.9708 17.6518 6.92305 18.3352 7.51417C19.0733 8.1524 19.1397 9.2785 18.4621 9.99158C17.9358 10.5453 17.3871 11.077 16.8473 11.6178C15.6377 12.8304 14.4281 14.0436 13.2172 15.2549C12.0926 16.3797 10.5481 16.3823 9.42671 15.2613C8.47152 14.3062 7.50988 13.3563 6.56564 12.3903C5.65618 11.4597 6.04521 9.91737 7.27736 9.55018C7.93498 9.354 8.51789 9.51339 9.00483 9.99416C9.71397 10.6956 10.4154 11.4036 11.1181 12.1115C11.1799 12.1734 11.2263 12.2515 11.3339 12.3928H11.3332ZM11.3229 15.029C11.759 15.0271 12.1268 14.849 12.4436 14.5302C14.1563 12.8084 15.8735 11.0912 17.5887 9.37142C17.6563 9.30366 17.7265 9.23332 17.7755 9.15201C17.912 8.9255 17.912 8.6906 17.769 8.46861C17.6209 8.23823 17.3954 8.11368 17.132 8.1795C16.9645 8.2208 16.7958 8.33374 16.6708 8.45828C15.0458 10.0748 13.4291 11.6991 11.8099 13.3208C11.4427 13.6887 11.1941 13.688 10.8263 13.3195C9.96839 12.4606 9.11303 11.5984 8.25124 10.7427C7.96783 10.4614 7.58975 10.4594 7.32503 10.7163C7.05386 10.9789 7.05064 11.3732 7.33727 11.6623C8.31629 12.6503 9.29982 13.6351 10.2859 14.616C10.5661 14.8948 10.9152 15.0232 11.3242 15.0284L11.3229 15.029Z" fill="black"/>
</g>
<defs>
<clipPath id="clip0_11_794">
<rect width="24.6875" height="20" fill="white" transform="translate(0.15625)"/>
</clipPath>
</defs>
</svg>
