<svg width="17" height="20" viewBox="0 0 17 20" fill="none" xmlns="http://www.w3.org/2000/svg">
<path d="M8.5 1.00146e-08C6.39206 -0.00010539 4.36926 0.831759 2.87124 2.31479C1.37323 3.79782 0.521079 5.81216 0.5 7.92C0.5 13.4 7.55 19.5 7.85 19.76C8.03113 19.9149 8.26165 20.0001 8.5 20.0001C8.73835 20.0001 8.96887 19.9149 9.15 19.76C9.5 19.5 16.5 13.4 16.5 7.92C16.4789 5.81216 15.6268 3.79782 14.1288 2.31479C12.6307 0.831759 10.6079 -0.00010539 8.5 1.00146e-08ZM8.5 17.65C6.83 16.06 2.5 11.65 2.5 7.92C2.5 6.3287 3.13214 4.80258 4.25736 3.67736C5.38258 2.55214 6.9087 1.92 8.5 1.92C10.0913 1.92 11.6174 2.55214 12.7426 3.67736C13.8679 4.80258 14.5 6.3287 14.5 7.92C14.5 11.62 10.17 16.06 8.5 17.65Z" fill="#010247"/>
</svg>
