<svg width="16" height="20" viewBox="0 0 16 20" fill="none" xmlns="http://www.w3.org/2000/svg">
<path d="M2.07633 20C1.69993 19.9164 1.33137 19.8127 1.0137 19.5814C0.351944 19.1001 0.00393341 18.4516 0.00246501 17.6344C-0.00194019 14.9925 0.000507143 12.3507 0.000996609 9.70877C0.000996609 9.2559 0.113574 8.83189 0.361244 8.4514C0.807148 7.76623 1.44345 7.39014 2.26282 7.35493C2.75082 7.3339 3.24078 7.35102 3.75912 7.35102C3.75912 7.27179 3.75912 7.20332 3.75912 7.13486C3.75912 6.17826 3.77283 5.22166 3.75618 4.26507C3.72045 2.21494 5.14529 0.526714 7.10315 0.0968329C9.34981 -0.397115 11.6371 1.05049 12.1231 3.29771C12.1897 3.6068 12.2093 3.93006 12.2132 4.24697C12.2244 5.20357 12.2171 6.16017 12.2171 7.11676V7.34857C12.688 7.34857 13.1427 7.34857 13.5974 7.34857C14.1084 7.34857 14.5783 7.48551 14.9899 7.78824C15.6566 8.27778 15.9772 8.9429 15.9772 9.76745C15.9762 12.3702 15.9772 14.973 15.9752 17.5762C15.9752 17.7249 15.963 17.875 15.9415 18.0227C15.7975 19.0028 15.0061 19.8039 14.0311 19.9633C13.987 19.9707 13.9449 19.9878 13.9018 20.0005H2.07633V20ZM7.99937 8.91014C6.15897 8.91014 4.31907 8.91014 2.47868 8.91014C1.86978 8.91014 1.56778 9.21286 1.56729 9.82272C1.56729 12.3868 1.56729 14.9505 1.56729 17.5146C1.56729 18.1382 1.86586 18.4375 2.48798 18.4379C6.15506 18.4379 9.82263 18.4379 13.4897 18.4379C14.1118 18.4379 14.4109 18.1386 14.4109 17.5156C14.4109 14.9583 14.4109 12.401 14.4109 9.84326C14.4109 9.2065 14.1157 8.91062 13.4804 8.91014C11.6532 8.91014 9.82606 8.91014 7.99888 8.91014H7.99937ZM10.6435 7.34368C10.6469 7.29478 10.6508 7.26348 10.6508 7.23218C10.6508 6.19147 10.6537 5.15026 10.6474 4.10955C10.6464 3.93544 10.6239 3.75792 10.5838 3.5887C10.2783 2.30542 9.03263 1.43098 7.73163 1.57917C6.31854 1.74007 5.33129 2.80963 5.32639 4.19122C5.32297 5.18009 5.32541 6.16897 5.32541 7.15784C5.32541 7.21946 5.32541 7.2806 5.32541 7.34368H10.643H10.6435Z" fill="black"/>
</svg>
