<svg width="40" height="40" viewBox="0 0 40 40" fill="none" xmlns="http://www.w3.org/2000/svg">
<g clip-path="url(#clip0_11_700)">
<path d="M26.3246 40C20.7524 40.0119 16.1729 35.4455 16.1538 29.8582C16.1336 24.2554 20.7024 19.6855 26.3223 19.6855C31.9231 19.6855 36.4597 24.2268 36.4597 29.8332C36.4597 35.4313 31.9172 39.9881 26.3258 39.9988L26.3246 40ZM23.4998 34.2328C23.5081 34.9428 24.0605 35.3741 24.6581 35.2406C25.07 35.1489 25.2592 34.8475 25.408 34.4901C26.152 32.6948 26.9044 30.9018 27.6519 29.1077C28.1257 27.9712 28.6102 26.8382 29.0661 25.6945C29.2626 25.2013 29.0435 24.7069 28.5924 24.4973C28.1567 24.2947 27.6246 24.471 27.3603 24.9106C27.2996 25.0119 27.2532 25.1227 27.2079 25.2311C26.0223 28.0653 24.8378 30.8983 23.6557 33.7336C23.5772 33.923 23.5319 34.1267 23.4986 34.2328H23.4998ZM25.7723 26.5249C25.7699 25.1036 24.6188 23.9516 23.1986 23.9469C21.7666 23.9421 20.5905 25.1167 20.594 26.5487C20.5976 27.9545 21.769 29.1303 23.1736 29.1375C24.5914 29.1446 25.7747 27.9557 25.7723 26.5249ZM32.0195 33.1272C32.016 31.7 30.8648 30.5492 29.4435 30.5516C28.0353 30.554 26.8567 31.7215 26.8448 33.126C26.8329 34.5401 28.0483 35.7517 29.459 35.7339C30.8744 35.716 32.0231 34.5461 32.0195 33.1284V33.1272Z" fill="#9C9C9C"/>
<path d="M26.4421 5.51703C27.3956 6.49749 28.3277 7.47557 29.28 8.43221C30.3919 9.54848 31.5156 10.6517 32.6477 11.7465C32.9715 12.0598 33.1108 12.4029 33.0917 12.8544C33.0131 14.7105 32.956 16.5678 32.8882 18.4251C32.8643 19.0696 32.481 19.4853 31.9215 19.4782C31.3621 19.471 30.9823 19.0434 31.0014 18.3977C31.0514 16.7489 31.1073 15.0989 31.1799 13.4513C31.1942 13.1308 31.1204 12.9021 30.8835 12.6686C29.255 11.0615 27.6432 9.4365 26.0255 7.81868C25.9124 7.7055 25.7933 7.59828 25.5743 7.3898C25.2874 8.72289 25.022 9.9583 24.7529 11.2092C24.9089 11.289 25.0065 11.3462 25.1112 11.3903C26.8302 12.117 27.7456 13.8861 27.348 15.7196C26.9659 17.4827 25.3088 18.7729 23.5209 18.6991C21.6686 18.6216 20.1187 17.2623 19.877 15.5039C19.6139 13.5823 20.6532 11.8382 22.4412 11.2783C22.8019 11.1651 22.9102 10.9948 22.9673 10.6517C23.1471 9.57231 23.3649 8.49892 23.5744 7.39337C23.0495 7.4172 22.5173 7.4446 21.9852 7.46366C20.5901 7.51251 19.1937 7.54467 17.7998 7.61734C17.5629 7.62925 17.2784 7.75315 17.1105 7.91994C12.237 12.777 7.37658 17.6459 2.51377 22.5137C1.69239 23.3369 1.6912 23.9862 2.50544 24.801C6.25522 28.5537 10.0038 32.3076 13.7536 36.0603C14.4166 36.7238 14.744 36.7822 15.6178 36.395C16.1249 36.1699 16.6391 36.3247 16.8879 36.7775C17.1474 37.2504 16.9903 37.7698 16.4951 38.0796C15.4416 38.7372 13.975 38.6729 12.9727 37.914C12.7608 37.7531 12.5667 37.5661 12.3787 37.3767C8.63841 33.6359 4.89934 29.8928 1.16028 26.1508C-0.392008 24.5973 -0.390817 22.7293 1.16623 21.1711C6.14451 16.1877 11.1252 11.208 16.0963 6.21753C16.4368 5.87681 16.8046 5.72194 17.2784 5.70764C19.4759 5.64331 21.6722 5.55635 23.8685 5.49201C24.2053 5.48248 24.3839 5.37765 24.5351 5.0548C25.516 2.94615 26.954 1.28067 29.2074 0.476528C32.3263 -0.637362 37.2784 -2.46496e-06 39.1842 4.56159C39.7544 5.92566 40.0044 7.35525 39.9984 8.82177C39.9877 11.837 39.2033 14.6331 37.495 17.1396C37.2034 17.5673 36.8677 17.97 36.5201 18.3548C36.1332 18.7836 35.5654 18.8027 35.1678 18.4429C34.7821 18.0939 34.7261 17.5435 35.0928 17.1206C36.8534 15.0953 37.7176 12.6984 38.0105 10.0727C38.1771 8.58113 38.0819 7.10388 37.5629 5.67667C36.7713 3.50131 35.2285 2.26828 32.9334 1.97164C30.0109 1.59399 27.6718 2.88182 26.4409 5.51822L26.4421 5.51703Z" fill="#9C9C9C"/>
<path d="M23.8807 26.5213C23.8891 26.8954 23.5962 27.1992 23.2129 27.2111C22.8177 27.2242 22.5225 26.9585 22.5022 26.5714C22.4808 26.1723 22.7832 25.8554 23.1855 25.8554C23.5688 25.8554 23.8724 26.1461 23.8807 26.5201V26.5213Z" fill="#9C9C9C"/>
<path d="M30.1208 33.1499C30.1148 33.5299 29.8232 33.811 29.4375 33.8099C29.0447 33.8099 28.7685 33.537 28.7649 33.1463C28.7614 32.7436 29.0649 32.4446 29.4637 32.4565C29.8387 32.4684 30.1267 32.771 30.1208 33.1487V33.1499Z" fill="#9C9C9C"/>
</g>
<defs>
<clipPath id="clip0_11_700">
<rect width="40" height="40" fill="white"/>
</clipPath>
</defs>
</svg>
