<svg width="22" height="24" viewBox="0 0 22 24" fill="none" xmlns="http://www.w3.org/2000/svg">
<path d="M3.1814 21.6066C3.1814 21.4443 3.1814 21.3233 3.1814 21.2023C3.1814 14.6098 3.1814 8.01729 3.18441 1.42402C3.18441 1.21962 3.19645 1.00696 3.2544 0.813834C3.40267 0.312613 3.87682 -0.00750714 4.41043 7.41576e-06C4.92748 0.00752198 5.3783 0.338914 5.53033 0.829615C5.56344 0.936322 5.58 1.04829 5.61236 1.19407C5.7087 1.19407 5.81783 1.19407 5.92696 1.19407C10.5849 1.19407 15.2421 1.19407 19.9001 1.19407C20.7333 1.19407 21.2925 1.75691 21.1924 2.53241C21.1615 2.76912 21.0388 3.0171 20.8943 3.21323C19.9656 4.47418 19.0195 5.72234 18.0788 6.97502C18.0283 7.0419 17.9794 7.11028 17.917 7.19595C18.1006 7.44318 18.2835 7.69041 18.4679 7.93613C19.2958 9.03852 20.1304 10.1356 20.9493 11.2455C21.4791 11.9639 21.1713 12.9153 20.3427 13.1445C20.1658 13.1933 19.9709 13.1911 19.785 13.1918C15.1834 13.1941 10.5819 13.1933 5.9804 13.1933H5.60634V21.6104C6.02856 21.6104 6.44852 21.5984 6.86698 21.6134C7.40736 21.6329 7.85141 22.0199 7.96204 22.5414C8.0772 23.0817 7.83259 23.628 7.34113 23.861C7.16878 23.9421 6.96407 23.9902 6.77366 23.9917C5.18638 24.0015 3.59986 24.0023 2.01258 23.9955C1.29684 23.9917 0.788818 23.4823 0.788818 22.8007C0.788818 22.1191 1.2991 21.6201 2.01484 21.6081C2.38889 21.6021 2.76294 21.6074 3.1814 21.6074V21.6066ZM17.5963 10.7909C17.5105 10.6707 17.4586 10.594 17.4029 10.5204C16.7843 9.69529 16.1634 8.8717 15.5455 8.04585C15.0886 7.43491 15.0864 6.95999 15.5394 6.35507C16.1573 5.52922 16.7775 4.70562 17.3969 3.88053C17.4556 3.80237 17.5105 3.72197 17.5858 3.61752H5.61387V10.7909H17.5963Z" fill="#010247"/>
</svg>
