<svg width="30" height="40" viewBox="0 0 30 40" fill="none" xmlns="http://www.w3.org/2000/svg">
<path d="M14.6236 0C14.8799 0 15.137 0 15.3933 0C15.478 0.0234375 15.5619 0.0515625 15.6481 0.0695312C16.6556 0.280469 17.4545 0.815625 17.9655 1.71953C19.0392 3.61875 18.3504 5.75547 16.3823 6.7375C16.2753 6.79062 16.2053 6.91953 16.1183 7.01328C16.1406 7.04531 16.1622 7.07734 16.1845 7.10938C16.3369 7.10938 16.4885 7.10938 16.6409 7.10938C19.912 7.10938 23.1823 7.10234 26.4534 7.1125C28.0235 7.11719 29.3581 8.06484 29.8014 9.44922C30.3017 11.0133 29.8499 12.5187 28.563 13.4664C28.2375 13.7062 27.8542 13.8641 27.4947 14.0602C28.0081 16.3992 27.4909 17.4484 25.1857 18.7336C25.6791 21.1445 25.1596 22.1992 22.8806 23.4156C23.5302 25.3867 22.6104 27.3813 20.5416 28.1102C20.8356 28.8969 20.8418 29.7023 20.5916 30.5469C20.774 30.5469 20.9133 30.5469 21.0526 30.5469C22.8483 30.5469 24.6439 30.5437 26.4395 30.5484C27.2546 30.5508 27.721 31.0484 27.7041 31.8766C27.6433 34.9266 25.1657 37.4906 22.1533 37.5641C20.3076 37.6094 18.4596 37.5766 16.6124 37.5781C16.4747 37.5781 16.3377 37.5781 16.1653 37.5781C16.1252 38.4945 16.4239 39.5156 15.3163 40H14.7006C13.5869 39.5187 13.904 38.4906 13.8447 37.5781C13.6808 37.5781 13.5438 37.5781 13.406 37.5781C11.5473 37.5758 9.687 37.6109 7.82903 37.5617C4.87429 37.4844 2.41367 34.9562 2.31592 31.9609C2.2859 31.0305 2.73693 30.5484 3.64744 30.5469C5.22449 30.5445 6.80153 30.5469 8.37857 30.5469C8.7103 30.5469 9.04202 30.5469 9.42224 30.5469C9.18133 29.707 9.17748 28.9023 9.48766 28.0852C8.50788 27.7664 7.76592 27.1836 7.30797 26.2672C6.84386 25.3383 6.83232 24.3758 7.16789 23.393C6.17348 23.0633 5.43922 22.475 4.98743 21.5516C4.53564 20.6297 4.52794 19.6805 4.86043 18.7062C3.87295 18.3789 3.13561 17.7938 2.68228 16.8719C2.22972 15.9508 2.2151 15.0008 2.51296 14.1359C1.96803 13.7516 1.4385 13.4375 0.979783 13.0398C0.403304 12.5391 0.186259 11.8156 0 11.0938C0 10.807 0 10.5211 0 10.2344C0.11391 9.86484 0.182411 9.47188 0.350198 9.12891C1.02058 7.75859 2.14813 7.11406 3.63744 7.11094C6.89312 7.10469 10.1488 7.10938 13.4053 7.10859H13.9078C13.8386 6.84141 13.8186 6.60938 13.7224 6.41719C13.336 5.64844 13.7986 4.76875 14.649 4.69297C14.8022 4.67969 14.9577 4.69297 15.1101 4.67812C15.7035 4.61797 16.153 4.12344 16.1607 3.53047C16.1684 2.95391 15.7458 2.44844 15.1778 2.35703C14.6082 2.26484 14.0495 2.64141 13.8978 3.23047C13.8624 3.36719 13.864 3.51328 13.844 3.65469C13.7555 4.27422 13.2375 4.71562 12.6402 4.68281C12.0422 4.65 11.5434 4.14609 11.5527 3.53281C11.5688 2.48125 11.9544 1.59063 12.7333 0.879688C13.276 0.385156 13.9317 0.157031 14.6236 0ZM15.0085 11.7969C18.7537 11.7969 22.4996 11.7969 26.2448 11.7969C27.1676 11.7969 27.7049 11.3648 27.7049 10.625C27.7049 9.88437 27.1684 9.45312 26.244 9.45312C18.7529 9.45312 11.2625 9.45312 3.77136 9.45312C3.63051 9.45312 3.48812 9.44688 3.34881 9.4625C2.75771 9.52891 2.3113 10.032 2.31207 10.625C2.31207 11.2172 2.75848 11.7203 3.34958 11.7867C3.48889 11.8023 3.63128 11.7961 3.77213 11.7961C7.51732 11.7961 11.2633 11.7961 15.0085 11.7961V11.7969ZM15.0469 14.1406C12.0583 14.1406 9.06973 14.1406 6.08112 14.1406C5.15753 14.1406 4.62107 14.5719 4.62107 15.3125C4.62107 16.0531 5.15829 16.4844 6.08112 16.4844C12.0329 16.4844 17.984 16.4844 23.9358 16.4844C24.0643 16.4844 24.1936 16.4922 24.3206 16.4773C24.8101 16.4227 25.1588 16.1695 25.3266 15.6938C25.6083 14.8961 25.0318 14.1438 24.129 14.1422C21.1019 14.1375 18.0748 14.1406 15.0477 14.1406H15.0469ZM25.1934 32.9031H4.8512C4.87429 32.9773 4.88583 33.025 4.9043 33.0703C5.43845 34.4086 6.70609 35.232 8.2562 35.2328C12.7557 35.2359 17.2551 35.2344 21.7538 35.2328C21.9201 35.2328 22.0878 35.232 22.2526 35.2109C23.6603 35.0328 24.6131 34.2578 25.1934 32.9023V32.9031ZM15.0477 18.8281C13.8678 18.8281 12.6879 18.8281 11.5073 18.8281C10.3658 18.8281 9.22366 18.8188 8.08302 18.8336C7.42188 18.8422 6.93006 19.3594 6.93006 19.9992C6.93006 20.6391 7.42111 21.1391 8.08225 21.1695C8.1977 21.175 8.31315 21.1719 8.4286 21.1719C12.8149 21.1719 17.202 21.1719 21.5883 21.1719C21.7292 21.1719 21.8716 21.1797 22.0116 21.1648C22.4865 21.1156 22.8298 20.8703 23.0061 20.4187C23.3139 19.6297 22.7459 18.8344 21.8585 18.8312C19.588 18.8234 17.3182 18.8289 15.0477 18.8281ZM15.0008 25.8594C16.4885 25.8594 17.9763 25.8617 19.4641 25.8586C20.2514 25.857 20.7733 25.3914 20.7779 24.6953C20.7825 23.9992 20.2584 23.5188 19.4795 23.5164C18.4404 23.5125 17.4014 23.5156 16.3631 23.5156C14.4135 23.5156 12.464 23.5188 10.5144 23.5141C9.97486 23.5125 9.56078 23.7211 9.33604 24.2258C8.98584 25.0125 9.56155 25.8508 10.4597 25.857C11.9729 25.8672 13.4868 25.8602 15 25.8602L15.0008 25.8594ZM15.0085 28.2031C14.2773 28.2031 13.5461 28.1992 12.8157 28.2039C12.066 28.2094 11.5481 28.6922 11.5481 29.375C11.5481 30.057 12.066 30.543 12.8157 30.5453C14.2781 30.55 15.7396 30.55 17.202 30.5453C17.9509 30.543 18.4697 30.057 18.4697 29.375C18.4697 28.693 17.9517 28.2102 17.202 28.2047C16.4708 28.1992 15.7396 28.2039 15.0092 28.2039L15.0085 28.2031Z" fill="#9D00DE"/>
</svg>
